<?xml version="1.0" encoding="UTF-8"?>
<svg xmlns="http://www.w3.org/2000/svg" xmlns:xlink="http://www.w3.org/1999/xlink" version="1.1" x="0px" y="0px" viewBox="0 0 128 160" style="enable-background:new 0 0 128 128;" xml:space="preserve"><g><path d="M127,14c0-7.2-5.8-13-13-13H99c-1.7,0-3,1.3-3,3s1.3,3,3,3h15c3.9,0,7,3.1,7,7v15c0,1.7,1.3,3,3,3s3-1.3,3-3V14z"/><path d="M4,32c1.7,0,3-1.3,3-3V14c0-3.9,3.1-7,7-7h15c1.7,0,3-1.3,3-3s-1.3-3-3-3H14C6.8,1,1,6.8,1,14v15C1,30.7,2.3,32,4,32z"/><path d="M14,127h15c1.7,0,3-1.3,3-3s-1.3-3-3-3H14c-3.9,0-7-3.1-7-7V99c0-1.7-1.3-3-3-3s-3,1.3-3,3v15C1,121.2,6.8,127,14,127z"/><path d="M127,114V99c0-1.7-1.3-3-3-3s-3,1.3-3,3v15c0,3.9-3.1,7-7,7H99c-1.7,0-3,1.3-3,3s1.3,3,3,3h15C121.2,127,127,121.2,127,114   z"/><path d="M104,81H84c-1.7,0-3,1.3-3,3v20c0,1.7,1.3,3,3,3h20c1.7,0,3-1.3,3-3V84C107,82.3,105.7,81,104,81z M101,101H87V87h14V101z"/><path d="M58,107c1.7,0,3-1.3,3-3v-7h9c1.7,0,3-1.3,3-3V74c0-1.7-1.3-3-3-3s-3,1.3-3,3v17h-9c-1.7,0-3,1.3-3,3v10   C55,105.7,56.3,107,58,107z"/><path d="M104,47c1.7,0,3-1.3,3-3V24c0-1.7-1.3-3-3-3H84c-1.7,0-3,1.3-3,3v20c0,1.7,1.3,3,3,3H104z M87,27h14v14H87V27z"/><path d="M24,47h20c1.7,0,3-1.3,3-3V24c0-1.7-1.3-3-3-3H24c-1.7,0-3,1.3-3,3v20C21,45.7,22.3,47,24,47z M27,27h14v14H27V27z"/><path d="M24,67h5c1.7,0,3-1.3,3-3s-1.3-3-3-3h-5c-1.7,0-3,1.3-3,3S22.3,67,24,67z"/><path d="M58,67c1.7,0,3-1.3,3-3V47h9c1.7,0,3-1.3,3-3V24c0-1.7-1.3-3-3-3s-3,1.3-3,3v17h-9c-1.7,0-3,1.3-3,3v17h-6   c-1.7,0-3,1.3-3,3s1.3,3,3,3H58z"/><path d="M76,58c0,1.7,1.3,3,3,3h9v9c0,1.7,1.3,3,3,3h13c1.7,0,3-1.3,3-3s-1.3-3-3-3H94v-9c0-1.7-1.3-3-3-3H79   C77.3,55,76,56.3,76,58z"/><path d="M47,104V84c0-1.7-1.3-3-3-3H24c-1.7,0-3,1.3-3,3v20c0,1.7,1.3,3,3,3h20C45.7,107,47,105.7,47,104z M41,101H27V87h14V101z"/></g></svg>